<mxfile host="app.diagrams.net" modified="2024-03-19T00:26:08.197Z" agent="Mozilla/5.0 (Windows NT 10.0; Win64; x64) AppleWebKit/537.36 (KHTML, like Gecko) Chrome/123.0.0.0 Safari/537.36" etag="eC6rGWj_REU6P9CgK2FC" version="24.0.5" type="google" pages="2">
  <diagram name="use case" id="WRKcTGO36_D6BCiyjps_">
    <mxGraphModel grid="1" page="1" gridSize="10" guides="1" tooltips="1" connect="1" arrows="1" fold="1" pageScale="1" pageWidth="827" pageHeight="1169" math="0" shadow="0">
      <root>
        <mxCell id="0" />
        <mxCell id="1" parent="0" />
        <mxCell id="w3AT87DU2gxn1C3qf7tR-23" style="edgeStyle=orthogonalEdgeStyle;rounded=0;orthogonalLoop=1;jettySize=auto;html=1;" edge="1" parent="1" source="w3AT87DU2gxn1C3qf7tR-10" target="w3AT87DU2gxn1C3qf7tR-21">
          <mxGeometry relative="1" as="geometry" />
        </mxCell>
        <mxCell id="w3AT87DU2gxn1C3qf7tR-61" style="edgeStyle=orthogonalEdgeStyle;rounded=0;orthogonalLoop=1;jettySize=auto;html=1;entryX=0;entryY=0.5;entryDx=0;entryDy=0;" edge="1" parent="1" source="w3AT87DU2gxn1C3qf7tR-10" target="w3AT87DU2gxn1C3qf7tR-12">
          <mxGeometry relative="1" as="geometry" />
        </mxCell>
        <mxCell id="M9zEUAkdm4O8zPOyT1Ss-5" style="edgeStyle=orthogonalEdgeStyle;rounded=0;orthogonalLoop=1;jettySize=auto;html=1;entryX=0;entryY=0.5;entryDx=0;entryDy=0;" edge="1" parent="1" source="w3AT87DU2gxn1C3qf7tR-10" target="w3AT87DU2gxn1C3qf7tR-73">
          <mxGeometry relative="1" as="geometry" />
        </mxCell>
        <mxCell id="w3AT87DU2gxn1C3qf7tR-10" value="Гость" style="shape=umlActor;verticalLabelPosition=bottom;verticalAlign=top;html=1;" vertex="1" parent="1">
          <mxGeometry x="80" y="85" width="30" height="60" as="geometry" />
        </mxCell>
        <mxCell id="w3AT87DU2gxn1C3qf7tR-12" value="Регистрация" style="html=1;whiteSpace=wrap;rounded=1;" vertex="1" parent="1">
          <mxGeometry x="290" y="30" width="110" height="50" as="geometry" />
        </mxCell>
        <mxCell id="w3AT87DU2gxn1C3qf7tR-26" style="edgeStyle=orthogonalEdgeStyle;rounded=0;orthogonalLoop=1;jettySize=auto;html=1;entryX=0;entryY=0.5;entryDx=0;entryDy=0;" edge="1" parent="1" source="w3AT87DU2gxn1C3qf7tR-17" target="w3AT87DU2gxn1C3qf7tR-25">
          <mxGeometry relative="1" as="geometry" />
        </mxCell>
        <mxCell id="w3AT87DU2gxn1C3qf7tR-27" style="edgeStyle=orthogonalEdgeStyle;rounded=0;orthogonalLoop=1;jettySize=auto;html=1;entryX=0;entryY=0.5;entryDx=0;entryDy=0;" edge="1" parent="1" source="w3AT87DU2gxn1C3qf7tR-17" target="w3AT87DU2gxn1C3qf7tR-24">
          <mxGeometry relative="1" as="geometry" />
        </mxCell>
        <mxCell id="w3AT87DU2gxn1C3qf7tR-33" style="edgeStyle=orthogonalEdgeStyle;rounded=0;orthogonalLoop=1;jettySize=auto;html=1;entryX=0;entryY=0.5;entryDx=0;entryDy=0;" edge="1" parent="1" source="w3AT87DU2gxn1C3qf7tR-17" target="w3AT87DU2gxn1C3qf7tR-32">
          <mxGeometry relative="1" as="geometry" />
        </mxCell>
        <mxCell id="w3AT87DU2gxn1C3qf7tR-70" style="edgeStyle=orthogonalEdgeStyle;rounded=0;orthogonalLoop=1;jettySize=auto;html=1;entryX=0;entryY=0.5;entryDx=0;entryDy=0;" edge="1" parent="1" source="w3AT87DU2gxn1C3qf7tR-17" target="w3AT87DU2gxn1C3qf7tR-68">
          <mxGeometry relative="1" as="geometry" />
        </mxCell>
        <mxCell id="w3AT87DU2gxn1C3qf7tR-17" value="Авторизованный пользователь" style="shape=umlActor;verticalLabelPosition=bottom;verticalAlign=top;html=1;" vertex="1" parent="1">
          <mxGeometry x="90" y="370" width="30" height="60" as="geometry" />
        </mxCell>
        <mxCell id="w3AT87DU2gxn1C3qf7tR-21" value="Авторизация" style="html=1;whiteSpace=wrap;rounded=1;" vertex="1" parent="1">
          <mxGeometry x="290" y="90" width="110" height="50" as="geometry" />
        </mxCell>
        <mxCell id="w3AT87DU2gxn1C3qf7tR-24" value="Создание события" style="html=1;whiteSpace=wrap;rounded=1;" vertex="1" parent="1">
          <mxGeometry x="290" y="310" width="110" height="50" as="geometry" />
        </mxCell>
        <mxCell id="w3AT87DU2gxn1C3qf7tR-25" value="Выход" style="html=1;whiteSpace=wrap;rounded=1;" vertex="1" parent="1">
          <mxGeometry x="290" y="230" width="110" height="50" as="geometry" />
        </mxCell>
        <mxCell id="i7mEmaVOgrt0v8OJq-EJ-9" style="edgeStyle=orthogonalEdgeStyle;rounded=0;orthogonalLoop=1;jettySize=auto;html=1;entryX=1;entryY=0.25;entryDx=0;entryDy=0;dashed=1;" edge="1" parent="1" source="w3AT87DU2gxn1C3qf7tR-28" target="w3AT87DU2gxn1C3qf7tR-56">
          <mxGeometry relative="1" as="geometry" />
        </mxCell>
        <mxCell id="i7mEmaVOgrt0v8OJq-EJ-11" value="&amp;lt;&amp;lt;extend&amp;gt;&amp;gt;" style="edgeLabel;html=1;align=center;verticalAlign=middle;resizable=0;points=[];" connectable="0" vertex="1" parent="i7mEmaVOgrt0v8OJq-EJ-9">
          <mxGeometry x="-0.4046" y="-1" relative="1" as="geometry">
            <mxPoint x="15" y="-9" as="offset" />
          </mxGeometry>
        </mxCell>
        <mxCell id="w3AT87DU2gxn1C3qf7tR-28" value="Редактирование события" style="html=1;whiteSpace=wrap;rounded=1;" vertex="1" parent="1">
          <mxGeometry x="730" y="355" width="110" height="50" as="geometry" />
        </mxCell>
        <mxCell id="i7mEmaVOgrt0v8OJq-EJ-10" style="edgeStyle=orthogonalEdgeStyle;rounded=0;orthogonalLoop=1;jettySize=auto;html=1;entryX=1;entryY=0.75;entryDx=0;entryDy=0;dashed=1;" edge="1" parent="1" source="w3AT87DU2gxn1C3qf7tR-29" target="w3AT87DU2gxn1C3qf7tR-56">
          <mxGeometry relative="1" as="geometry" />
        </mxCell>
        <mxCell id="i7mEmaVOgrt0v8OJq-EJ-12" value="&amp;lt;&amp;lt;extend&amp;gt;&amp;gt;" style="edgeLabel;html=1;align=center;verticalAlign=middle;resizable=0;points=[];" connectable="0" vertex="1" parent="i7mEmaVOgrt0v8OJq-EJ-10">
          <mxGeometry x="-0.4658" y="-2" relative="1" as="geometry">
            <mxPoint x="9" y="17" as="offset" />
          </mxGeometry>
        </mxCell>
        <mxCell id="w3AT87DU2gxn1C3qf7tR-29" value="Удаление события" style="html=1;whiteSpace=wrap;rounded=1;" vertex="1" parent="1">
          <mxGeometry x="730" y="420" width="110" height="50" as="geometry" />
        </mxCell>
        <mxCell id="i7mEmaVOgrt0v8OJq-EJ-7" style="edgeStyle=orthogonalEdgeStyle;rounded=0;orthogonalLoop=1;jettySize=auto;html=1;dashed=1;" edge="1" parent="1" source="w3AT87DU2gxn1C3qf7tR-32" target="w3AT87DU2gxn1C3qf7tR-56">
          <mxGeometry relative="1" as="geometry" />
        </mxCell>
        <mxCell id="i7mEmaVOgrt0v8OJq-EJ-8" value="&amp;lt;&amp;lt;include&amp;gt;&amp;gt;" style="edgeLabel;html=1;align=center;verticalAlign=middle;resizable=0;points=[];" connectable="0" vertex="1" parent="i7mEmaVOgrt0v8OJq-EJ-7">
          <mxGeometry x="0.1289" y="-4" relative="1" as="geometry">
            <mxPoint x="-11" y="-19" as="offset" />
          </mxGeometry>
        </mxCell>
        <mxCell id="w3AT87DU2gxn1C3qf7tR-32" value="Просмотр событий" style="html=1;whiteSpace=wrap;rounded=1;" vertex="1" parent="1">
          <mxGeometry x="290" y="390" width="110" height="50" as="geometry" />
        </mxCell>
        <mxCell id="i7mEmaVOgrt0v8OJq-EJ-13" style="edgeStyle=orthogonalEdgeStyle;rounded=0;orthogonalLoop=1;jettySize=auto;html=1;entryX=0.5;entryY=0;entryDx=0;entryDy=0;dashed=1;" edge="1" parent="1" source="w3AT87DU2gxn1C3qf7tR-40" target="w3AT87DU2gxn1C3qf7tR-28">
          <mxGeometry relative="1" as="geometry" />
        </mxCell>
        <mxCell id="i7mEmaVOgrt0v8OJq-EJ-16" value="&amp;lt;&amp;lt;extend&amp;gt;&amp;gt;" style="edgeLabel;html=1;align=center;verticalAlign=middle;resizable=0;points=[];" connectable="0" vertex="1" parent="i7mEmaVOgrt0v8OJq-EJ-13">
          <mxGeometry x="-0.6254" y="3" relative="1" as="geometry">
            <mxPoint y="-12" as="offset" />
          </mxGeometry>
        </mxCell>
        <mxCell id="i7mEmaVOgrt0v8OJq-EJ-14" style="edgeStyle=orthogonalEdgeStyle;rounded=0;orthogonalLoop=1;jettySize=auto;html=1;entryX=1;entryY=0.5;entryDx=0;entryDy=0;dashed=1;" edge="1" parent="1" source="w3AT87DU2gxn1C3qf7tR-40" target="w3AT87DU2gxn1C3qf7tR-24">
          <mxGeometry relative="1" as="geometry">
            <mxPoint x="420" y="335" as="targetPoint" />
          </mxGeometry>
        </mxCell>
        <mxCell id="i7mEmaVOgrt0v8OJq-EJ-15" value="&amp;lt;&amp;lt;extend&amp;gt;&amp;gt;" style="edgeLabel;html=1;align=center;verticalAlign=middle;resizable=0;points=[];" connectable="0" vertex="1" parent="i7mEmaVOgrt0v8OJq-EJ-14">
          <mxGeometry x="-0.4311" y="-2" relative="1" as="geometry">
            <mxPoint x="-14" y="-13" as="offset" />
          </mxGeometry>
        </mxCell>
        <mxCell id="w3AT87DU2gxn1C3qf7tR-40" value="Разрешение конфликтов" style="html=1;whiteSpace=wrap;rounded=1;" vertex="1" parent="1">
          <mxGeometry x="490" y="310" width="110" height="50" as="geometry" />
        </mxCell>
        <mxCell id="w3AT87DU2gxn1C3qf7tR-56" value="Просмотр события" style="html=1;whiteSpace=wrap;rounded=1;" vertex="1" parent="1">
          <mxGeometry x="490" y="390" width="110" height="50" as="geometry" />
        </mxCell>
        <mxCell id="w3AT87DU2gxn1C3qf7tR-68" value="Получение почтовых уведомлений" style="html=1;whiteSpace=wrap;rounded=1;" vertex="1" parent="1">
          <mxGeometry x="290" y="470" width="110" height="50" as="geometry" />
        </mxCell>
        <mxCell id="zaDKcWEoRIeuJa7uDEZN-1" style="edgeStyle=orthogonalEdgeStyle;rounded=0;orthogonalLoop=1;jettySize=auto;html=1;entryX=0.5;entryY=1;entryDx=0;entryDy=0;dashed=1;" edge="1" parent="1" source="w3AT87DU2gxn1C3qf7tR-71" target="w3AT87DU2gxn1C3qf7tR-56">
          <mxGeometry relative="1" as="geometry" />
        </mxCell>
        <mxCell id="zaDKcWEoRIeuJa7uDEZN-2" value="&amp;lt;&amp;lt;extend&amp;gt;&amp;gt;" style="edgeLabel;html=1;align=center;verticalAlign=middle;resizable=0;points=[];" connectable="0" vertex="1" parent="zaDKcWEoRIeuJa7uDEZN-1">
          <mxGeometry x="-0.4646" y="1" relative="1" as="geometry">
            <mxPoint x="40" y="-16" as="offset" />
          </mxGeometry>
        </mxCell>
        <mxCell id="w3AT87DU2gxn1C3qf7tR-71" value="Скачивание событий&amp;nbsp;" style="html=1;whiteSpace=wrap;rounded=1;" vertex="1" parent="1">
          <mxGeometry x="730" y="490" width="110" height="50" as="geometry" />
        </mxCell>
        <mxCell id="w3AT87DU2gxn1C3qf7tR-73" value="Восстановление доступа" style="html=1;whiteSpace=wrap;rounded=1;" vertex="1" parent="1">
          <mxGeometry x="290" y="150" width="110" height="50" as="geometry" />
        </mxCell>
      </root>
    </mxGraphModel>
  </diagram>
  <diagram name="old" id="UAh_X08Zy99xtJacmaIe">
    <mxGraphModel grid="1" page="1" gridSize="10" guides="1" tooltips="1" connect="1" arrows="1" fold="1" pageScale="1" pageWidth="827" pageHeight="1169" math="0" shadow="0">
      <root>
        <mxCell id="G0jWwxTSm498MF0zn0Ts-0" />
        <mxCell id="G0jWwxTSm498MF0zn0Ts-1" parent="G0jWwxTSm498MF0zn0Ts-0" />
        <mxCell id="G0jWwxTSm498MF0zn0Ts-2" style="edgeStyle=orthogonalEdgeStyle;rounded=0;orthogonalLoop=1;jettySize=auto;html=1;" parent="G0jWwxTSm498MF0zn0Ts-1" source="G0jWwxTSm498MF0zn0Ts-5" target="G0jWwxTSm498MF0zn0Ts-13" edge="1">
          <mxGeometry relative="1" as="geometry" />
        </mxCell>
        <mxCell id="G0jWwxTSm498MF0zn0Ts-3" style="edgeStyle=orthogonalEdgeStyle;rounded=0;orthogonalLoop=1;jettySize=auto;html=1;entryX=0;entryY=0.5;entryDx=0;entryDy=0;" parent="G0jWwxTSm498MF0zn0Ts-1" source="G0jWwxTSm498MF0zn0Ts-5" target="G0jWwxTSm498MF0zn0Ts-6" edge="1">
          <mxGeometry relative="1" as="geometry" />
        </mxCell>
        <mxCell id="G0jWwxTSm498MF0zn0Ts-4" style="edgeStyle=orthogonalEdgeStyle;rounded=0;orthogonalLoop=1;jettySize=auto;html=1;entryX=0;entryY=0.5;entryDx=0;entryDy=0;" parent="G0jWwxTSm498MF0zn0Ts-1" source="G0jWwxTSm498MF0zn0Ts-5" target="G0jWwxTSm498MF0zn0Ts-48" edge="1">
          <mxGeometry relative="1" as="geometry" />
        </mxCell>
        <mxCell id="G0jWwxTSm498MF0zn0Ts-5" value="Гость" style="shape=umlActor;verticalLabelPosition=bottom;verticalAlign=top;html=1;" parent="G0jWwxTSm498MF0zn0Ts-1" vertex="1">
          <mxGeometry x="80" y="85" width="30" height="60" as="geometry" />
        </mxCell>
        <mxCell id="G0jWwxTSm498MF0zn0Ts-6" value="Регистрация" style="html=1;whiteSpace=wrap;" parent="G0jWwxTSm498MF0zn0Ts-1" vertex="1">
          <mxGeometry x="290" y="30" width="110" height="50" as="geometry" />
        </mxCell>
        <mxCell id="G0jWwxTSm498MF0zn0Ts-7" style="edgeStyle=orthogonalEdgeStyle;rounded=0;orthogonalLoop=1;jettySize=auto;html=1;entryX=0;entryY=0.5;entryDx=0;entryDy=0;" parent="G0jWwxTSm498MF0zn0Ts-1" source="G0jWwxTSm498MF0zn0Ts-12" target="G0jWwxTSm498MF0zn0Ts-16" edge="1">
          <mxGeometry relative="1" as="geometry" />
        </mxCell>
        <mxCell id="G0jWwxTSm498MF0zn0Ts-8" style="edgeStyle=orthogonalEdgeStyle;rounded=0;orthogonalLoop=1;jettySize=auto;html=1;entryX=0;entryY=0.5;entryDx=0;entryDy=0;" parent="G0jWwxTSm498MF0zn0Ts-1" source="G0jWwxTSm498MF0zn0Ts-12" target="G0jWwxTSm498MF0zn0Ts-15" edge="1">
          <mxGeometry relative="1" as="geometry" />
        </mxCell>
        <mxCell id="G0jWwxTSm498MF0zn0Ts-9" style="edgeStyle=orthogonalEdgeStyle;rounded=0;orthogonalLoop=1;jettySize=auto;html=1;entryX=0;entryY=0.5;entryDx=0;entryDy=0;" parent="G0jWwxTSm498MF0zn0Ts-1" source="G0jWwxTSm498MF0zn0Ts-12" target="G0jWwxTSm498MF0zn0Ts-21" edge="1">
          <mxGeometry relative="1" as="geometry" />
        </mxCell>
        <mxCell id="G0jWwxTSm498MF0zn0Ts-10" style="edgeStyle=orthogonalEdgeStyle;rounded=0;orthogonalLoop=1;jettySize=auto;html=1;entryX=0;entryY=0.5;entryDx=0;entryDy=0;" parent="G0jWwxTSm498MF0zn0Ts-1" source="G0jWwxTSm498MF0zn0Ts-12" target="G0jWwxTSm498MF0zn0Ts-46" edge="1">
          <mxGeometry relative="1" as="geometry" />
        </mxCell>
        <mxCell id="G0jWwxTSm498MF0zn0Ts-11" style="edgeStyle=orthogonalEdgeStyle;rounded=0;orthogonalLoop=1;jettySize=auto;html=1;entryX=0;entryY=0.5;entryDx=0;entryDy=0;" parent="G0jWwxTSm498MF0zn0Ts-1" source="G0jWwxTSm498MF0zn0Ts-12" target="G0jWwxTSm498MF0zn0Ts-47" edge="1">
          <mxGeometry relative="1" as="geometry" />
        </mxCell>
        <mxCell id="G0jWwxTSm498MF0zn0Ts-12" value="Авторизованный пользователь" style="shape=umlActor;verticalLabelPosition=bottom;verticalAlign=top;html=1;" parent="G0jWwxTSm498MF0zn0Ts-1" vertex="1">
          <mxGeometry x="90" y="370" width="30" height="60" as="geometry" />
        </mxCell>
        <mxCell id="G0jWwxTSm498MF0zn0Ts-13" value="Авторизация" style="html=1;whiteSpace=wrap;" parent="G0jWwxTSm498MF0zn0Ts-1" vertex="1">
          <mxGeometry x="290" y="90" width="110" height="50" as="geometry" />
        </mxCell>
        <mxCell id="G0jWwxTSm498MF0zn0Ts-14" style="edgeStyle=orthogonalEdgeStyle;rounded=0;orthogonalLoop=1;jettySize=auto;html=1;entryX=0;entryY=0.5;entryDx=0;entryDy=0;" parent="G0jWwxTSm498MF0zn0Ts-1" source="G0jWwxTSm498MF0zn0Ts-15" target="G0jWwxTSm498MF0zn0Ts-28" edge="1">
          <mxGeometry relative="1" as="geometry" />
        </mxCell>
        <mxCell id="G0jWwxTSm498MF0zn0Ts-15" value="Создание события" style="html=1;whiteSpace=wrap;" parent="G0jWwxTSm498MF0zn0Ts-1" vertex="1">
          <mxGeometry x="290" y="290" width="110" height="50" as="geometry" />
        </mxCell>
        <mxCell id="G0jWwxTSm498MF0zn0Ts-16" value="Выход" style="html=1;whiteSpace=wrap;" parent="G0jWwxTSm498MF0zn0Ts-1" vertex="1">
          <mxGeometry x="290" y="230" width="110" height="50" as="geometry" />
        </mxCell>
        <mxCell id="G0jWwxTSm498MF0zn0Ts-17" style="edgeStyle=orthogonalEdgeStyle;rounded=0;orthogonalLoop=1;jettySize=auto;html=1;entryX=0;entryY=0.5;entryDx=0;entryDy=0;" parent="G0jWwxTSm498MF0zn0Ts-1" source="G0jWwxTSm498MF0zn0Ts-18" target="G0jWwxTSm498MF0zn0Ts-28" edge="1">
          <mxGeometry relative="1" as="geometry" />
        </mxCell>
        <mxCell id="G0jWwxTSm498MF0zn0Ts-18" value="Редактирование события" style="html=1;whiteSpace=wrap;" parent="G0jWwxTSm498MF0zn0Ts-1" vertex="1">
          <mxGeometry x="450" y="380" width="110" height="50" as="geometry" />
        </mxCell>
        <mxCell id="G0jWwxTSm498MF0zn0Ts-19" value="Удаление события" style="html=1;whiteSpace=wrap;" parent="G0jWwxTSm498MF0zn0Ts-1" vertex="1">
          <mxGeometry x="450" y="450" width="110" height="50" as="geometry" />
        </mxCell>
        <mxCell id="G0jWwxTSm498MF0zn0Ts-20" style="edgeStyle=orthogonalEdgeStyle;rounded=0;orthogonalLoop=1;jettySize=auto;html=1;" parent="G0jWwxTSm498MF0zn0Ts-1" source="G0jWwxTSm498MF0zn0Ts-21" target="G0jWwxTSm498MF0zn0Ts-42" edge="1">
          <mxGeometry relative="1" as="geometry" />
        </mxCell>
        <mxCell id="G0jWwxTSm498MF0zn0Ts-21" value="Просмотр событий" style="html=1;whiteSpace=wrap;" parent="G0jWwxTSm498MF0zn0Ts-1" vertex="1">
          <mxGeometry x="290" y="350" width="110" height="50" as="geometry" />
        </mxCell>
        <mxCell id="G0jWwxTSm498MF0zn0Ts-22" value="Создание события" style="shape=umlFrame;whiteSpace=wrap;html=1;pointerEvents=0;" parent="G0jWwxTSm498MF0zn0Ts-1" vertex="1">
          <mxGeometry x="10" y="930" width="790" height="180" as="geometry" />
        </mxCell>
        <mxCell id="G0jWwxTSm498MF0zn0Ts-23" value="Редактирование события" style="shape=umlFrame;whiteSpace=wrap;html=1;pointerEvents=0;width=120;height=30;" parent="G0jWwxTSm498MF0zn0Ts-1" vertex="1">
          <mxGeometry x="10" y="1120" width="790" height="180" as="geometry" />
        </mxCell>
        <mxCell id="G0jWwxTSm498MF0zn0Ts-24" value="Удаление события" style="shape=umlFrame;whiteSpace=wrap;html=1;pointerEvents=0;width=120;height=30;" parent="G0jWwxTSm498MF0zn0Ts-1" vertex="1">
          <mxGeometry x="10" y="1320" width="790" height="180" as="geometry" />
        </mxCell>
        <mxCell id="G0jWwxTSm498MF0zn0Ts-25" value="Просмотр события" style="shape=umlFrame;whiteSpace=wrap;html=1;pointerEvents=0;width=120;height=30;" parent="G0jWwxTSm498MF0zn0Ts-1" vertex="1">
          <mxGeometry x="10" y="1510" width="790" height="180" as="geometry" />
        </mxCell>
        <mxCell id="G0jWwxTSm498MF0zn0Ts-26" value="Название&lt;div&gt;Описание&lt;/div&gt;&lt;div&gt;Дата начала&lt;/div&gt;&lt;div&gt;Дата конца&lt;/div&gt;&lt;div&gt;Цвет&lt;/div&gt;" style="text;html=1;align=center;verticalAlign=middle;resizable=0;points=[];autosize=1;strokeColor=none;fillColor=none;" parent="G0jWwxTSm498MF0zn0Ts-1" vertex="1">
          <mxGeometry x="70" y="950" width="90" height="90" as="geometry" />
        </mxCell>
        <mxCell id="G0jWwxTSm498MF0zn0Ts-27" value="Изменение даты начала&lt;div&gt;Изменение даты конца&lt;/div&gt;&lt;div&gt;Изменение цвета&lt;div&gt;&lt;br&gt;&lt;/div&gt;&lt;/div&gt;" style="text;html=1;align=center;verticalAlign=middle;resizable=0;points=[];autosize=1;strokeColor=none;fillColor=none;" parent="G0jWwxTSm498MF0zn0Ts-1" vertex="1">
          <mxGeometry x="60" y="1175" width="160" height="70" as="geometry" />
        </mxCell>
        <mxCell id="G0jWwxTSm498MF0zn0Ts-28" value="Разрешение конфликтов" style="html=1;whiteSpace=wrap;" parent="G0jWwxTSm498MF0zn0Ts-1" vertex="1">
          <mxGeometry x="530" y="290" width="110" height="50" as="geometry" />
        </mxCell>
        <mxCell id="G0jWwxTSm498MF0zn0Ts-29" value="Удаление события с DB" style="html=1;whiteSpace=wrap;" parent="G0jWwxTSm498MF0zn0Ts-1" vertex="1">
          <mxGeometry x="60" y="1385" width="110" height="50" as="geometry" />
        </mxCell>
        <mxCell id="G0jWwxTSm498MF0zn0Ts-30" style="edgeStyle=orthogonalEdgeStyle;rounded=0;orthogonalLoop=1;jettySize=auto;html=1;entryX=0;entryY=0.5;entryDx=0;entryDy=0;" parent="G0jWwxTSm498MF0zn0Ts-1" source="G0jWwxTSm498MF0zn0Ts-31" target="G0jWwxTSm498MF0zn0Ts-44" edge="1">
          <mxGeometry relative="1" as="geometry" />
        </mxCell>
        <mxCell id="G0jWwxTSm498MF0zn0Ts-31" value="Клик на календаре" style="html=1;whiteSpace=wrap;" parent="G0jWwxTSm498MF0zn0Ts-1" vertex="1">
          <mxGeometry x="60" y="1575" width="110" height="50" as="geometry" />
        </mxCell>
        <mxCell id="G0jWwxTSm498MF0zn0Ts-32" value="Разрешение конфликтов" style="shape=umlFrame;whiteSpace=wrap;html=1;pointerEvents=0;width=120;height=30;" parent="G0jWwxTSm498MF0zn0Ts-1" vertex="1">
          <mxGeometry x="10" y="1710" width="790" height="240" as="geometry" />
        </mxCell>
        <mxCell id="G0jWwxTSm498MF0zn0Ts-33" value="Сдвиг события на конкретную дату (спрашиваем пользователя)&lt;div&gt;&lt;br&gt;&lt;/div&gt;" style="text;html=1;align=center;verticalAlign=middle;resizable=0;points=[];autosize=1;strokeColor=none;fillColor=none;" parent="G0jWwxTSm498MF0zn0Ts-1" vertex="1">
          <mxGeometry x="140" y="1710" width="380" height="40" as="geometry" />
        </mxCell>
        <mxCell id="G0jWwxTSm498MF0zn0Ts-34" style="edgeStyle=orthogonalEdgeStyle;rounded=0;orthogonalLoop=1;jettySize=auto;html=1;entryX=0;entryY=0.5;entryDx=0;entryDy=0;" parent="G0jWwxTSm498MF0zn0Ts-1" source="G0jWwxTSm498MF0zn0Ts-36" target="G0jWwxTSm498MF0zn0Ts-37" edge="1">
          <mxGeometry relative="1" as="geometry" />
        </mxCell>
        <mxCell id="G0jWwxTSm498MF0zn0Ts-35" style="edgeStyle=orthogonalEdgeStyle;rounded=0;orthogonalLoop=1;jettySize=auto;html=1;entryX=0;entryY=0.5;entryDx=0;entryDy=0;" parent="G0jWwxTSm498MF0zn0Ts-1" source="G0jWwxTSm498MF0zn0Ts-36" target="G0jWwxTSm498MF0zn0Ts-39" edge="1">
          <mxGeometry relative="1" as="geometry" />
        </mxCell>
        <mxCell id="G0jWwxTSm498MF0zn0Ts-36" value="Выдача информации о конфликте" style="html=1;whiteSpace=wrap;" parent="G0jWwxTSm498MF0zn0Ts-1" vertex="1">
          <mxGeometry x="50" y="1780" width="110" height="50" as="geometry" />
        </mxCell>
        <mxCell id="G0jWwxTSm498MF0zn0Ts-37" value="Выдача набора ближайших слотов, независимо от времени" style="html=1;whiteSpace=wrap;" parent="G0jWwxTSm498MF0zn0Ts-1" vertex="1">
          <mxGeometry x="240" y="1750" width="120" height="80" as="geometry" />
        </mxCell>
        <mxCell id="G0jWwxTSm498MF0zn0Ts-38" value="Object" style="html=1;whiteSpace=wrap;" parent="G0jWwxTSm498MF0zn0Ts-1" vertex="1">
          <mxGeometry x="414" y="1765" width="110" height="50" as="geometry" />
        </mxCell>
        <mxCell id="G0jWwxTSm498MF0zn0Ts-39" value="" style="html=1;whiteSpace=wrap;" parent="G0jWwxTSm498MF0zn0Ts-1" vertex="1">
          <mxGeometry x="240" y="1860" width="120" height="70" as="geometry" />
        </mxCell>
        <mxCell id="G0jWwxTSm498MF0zn0Ts-40" style="edgeStyle=orthogonalEdgeStyle;rounded=0;orthogonalLoop=1;jettySize=auto;html=1;entryX=0;entryY=0.5;entryDx=0;entryDy=0;" parent="G0jWwxTSm498MF0zn0Ts-1" source="G0jWwxTSm498MF0zn0Ts-42" target="G0jWwxTSm498MF0zn0Ts-18" edge="1">
          <mxGeometry relative="1" as="geometry" />
        </mxCell>
        <mxCell id="G0jWwxTSm498MF0zn0Ts-41" style="edgeStyle=orthogonalEdgeStyle;rounded=0;orthogonalLoop=1;jettySize=auto;html=1;entryX=0;entryY=0.5;entryDx=0;entryDy=0;" parent="G0jWwxTSm498MF0zn0Ts-1" source="G0jWwxTSm498MF0zn0Ts-42" target="G0jWwxTSm498MF0zn0Ts-19" edge="1">
          <mxGeometry relative="1" as="geometry" />
        </mxCell>
        <mxCell id="G0jWwxTSm498MF0zn0Ts-42" value="Просмотр события" style="html=1;whiteSpace=wrap;" parent="G0jWwxTSm498MF0zn0Ts-1" vertex="1">
          <mxGeometry x="290" y="420" width="110" height="50" as="geometry" />
        </mxCell>
        <mxCell id="G0jWwxTSm498MF0zn0Ts-43" style="edgeStyle=orthogonalEdgeStyle;rounded=0;orthogonalLoop=1;jettySize=auto;html=1;entryX=0;entryY=0.5;entryDx=0;entryDy=0;" parent="G0jWwxTSm498MF0zn0Ts-1" source="G0jWwxTSm498MF0zn0Ts-44" target="G0jWwxTSm498MF0zn0Ts-45" edge="1">
          <mxGeometry relative="1" as="geometry" />
        </mxCell>
        <mxCell id="G0jWwxTSm498MF0zn0Ts-44" value="Вывод окна" style="html=1;whiteSpace=wrap;" parent="G0jWwxTSm498MF0zn0Ts-1" vertex="1">
          <mxGeometry x="220" y="1575" width="110" height="50" as="geometry" />
        </mxCell>
        <mxCell id="G0jWwxTSm498MF0zn0Ts-45" value="Вывод кнопок" style="html=1;whiteSpace=wrap;" parent="G0jWwxTSm498MF0zn0Ts-1" vertex="1">
          <mxGeometry x="380" y="1575" width="110" height="50" as="geometry" />
        </mxCell>
        <mxCell id="G0jWwxTSm498MF0zn0Ts-46" value="Почтовые уведомления" style="html=1;whiteSpace=wrap;" parent="G0jWwxTSm498MF0zn0Ts-1" vertex="1">
          <mxGeometry x="290" y="490" width="110" height="50" as="geometry" />
        </mxCell>
        <mxCell id="G0jWwxTSm498MF0zn0Ts-47" value="Скачивание событий&amp;nbsp;" style="html=1;whiteSpace=wrap;" parent="G0jWwxTSm498MF0zn0Ts-1" vertex="1">
          <mxGeometry x="290" y="550" width="110" height="50" as="geometry" />
        </mxCell>
        <mxCell id="G0jWwxTSm498MF0zn0Ts-48" value="Восстановление доступа" style="html=1;whiteSpace=wrap;" parent="G0jWwxTSm498MF0zn0Ts-1" vertex="1">
          <mxGeometry x="290" y="150" width="110" height="50" as="geometry" />
        </mxCell>
      </root>
    </mxGraphModel>
  </diagram>
</mxfile>
